<svg width="33" height="33" viewBox="0 0 33 33" fill="none" xmlns="http://www.w3.org/2000/svg">
<circle cx="16.5" cy="16.5" r="16.5" fill="#D9D9D9"/>
<g clipPath="url(#clip0_44_43)">
<path d="M10 9H14L16 14L13.5 15.5C14.571 17.6715 16.3285 19.429 18.5 20.5L20 18L25 20V24C25 24.5304 24.7893 25.0391 24.4142 25.4142C24.0391 25.7893 23.5304 26 23 26C19.0993 25.763 15.4202 24.1065 12.6568 21.3432C9.8935 18.5798 8.23705 14.9007 8 11C8 10.4696 8.21071 9.96086 8.58579 9.58579C8.96086 9.21071 9.46957 9 10 9Z" stroke="url(#paint0_linear_44_43)" strokeWidth="2" strokeLinecap="round" strokeLinejoin="round"/>
</g>
<defs>
<linearGradient id="paint0_linear_44_43" x1="8" y1="9" x2="28.3841" y2="19.3078" gradientUnits="userSpaceOnUse">
<stop stopColor="#242E4E"/>
<stop offset="1" stopColor="#151511" stopOpacity="0.74"/>
</linearGradient>
<clipPath id="clip0_44_43">
<rect width="24" height="24" fill="white" transform="translate(5 5)"/>
</clipPath>
</defs>
</svg>
