<svg width="33" height="33" viewBox="0 0 33 33" fill="none" xmlns="http://www.w3.org/2000/svg">
<circle cx="16.5" cy="16.5" r="16.5" fill="#D9D9D9"/>
<g clipPath="url(#clip0_44_35)">
<path d="M8 12C8 11.4696 8.21071 10.9609 8.58579 10.5858C8.96086 10.2107 9.46957 10 10 10H24C24.5304 10 25.0391 10.2107 25.4142 10.5858C25.7893 10.9609 26 11.4696 26 12V22C26 22.5304 25.7893 23.0391 25.4142 23.4142C25.0391 23.7893 24.5304 24 24 24H10C9.46957 24 8.96086 23.7893 8.58579 23.4142C8.21071 23.0391 8 22.5304 8 22V12Z" stroke="url(#paint0_linear_44_35)" strokeWidth="2" strokeLinecap="round" strokeLinejoin="round"/>
<path d="M8 12L17 18L26 12" stroke="url(#paint1_linear_44_35)" strokeWidth="2" strokeLinecap="round" strokeLinejoin="round"/>
</g>
<defs>
<linearGradient id="paint0_linear_44_35" x1="8" y1="10" x2="27.0498" y2="22.3854" gradientUnits="userSpaceOnUse">
<stop stopColor="#242E4E"/>
<stop offset="1" stopColor="#151511" stopOpacity="0.74"/>
</linearGradient>
<linearGradient id="paint1_linear_44_35" x1="8" y1="12" x2="16.2093" y2="24.4538" gradientUnits="userSpaceOnUse">
<stop stopColor="#242E4E"/>
<stop offset="1" stopColor="#151511" stopOpacity="0.74"/>
</linearGradient>
<clipPath id="clip0_44_35">
<rect width="24" height="24" fill="white" transform="translate(5 5)"/>
</clipPath>
</defs>
</svg>
